<svg xmlns="http://www.w3.org/2000/svg" fill="none" viewBox="0 0 1700 1700" width="1700" height="1700"><defs><clipPath id="assetClipPath_74wSu4qp"><path d="m0 0 h 779.934 v 506.801 h -779.934 v -506.801 z" id="path_fZpEkxyQ" fill="#ffffff" /></clipPath><clipPath id="assetClipPath_5wTo9I0W"><path d="m0 0 h 1133.962 v 991.07 h -1133.962 v -991.07 z" id="path_JNIy3BWO" fill="#ffffff" /></clipPath><clipPath id="assetClipPath_b_yD7Jyn"><path d="m0 0 h 288.767 v 276.585 h -288.767 v -276.585 z" id="path_qLbgN5Q1" fill="#ffffff" /></clipPath><clipPath id="assetClipPath_DTX71JK_"><path d="m0 0 h 346.838 v 224.836 h -346.838 v -224.836 z" id="path_BurXSdcl" fill="#ffffff" /></clipPath><clipPath id="assetClipPath_iDCdWfPw"><path d="m0 0 h 1233 v 8 h -1233 v -8 z" id="path_X8QXZfRs" fill="#ffffff" /></clipPath><clipPath id="assetClipPath_d-x5bwWk"><path d="m0 0 h 189.033 v 196.879 h -189.033 v -196.879 z" id="path_35MqhYlw" fill="#ffffff" /></clipPath></defs><g transform="translate(722 241)" data-asset-index="0"><g clip-path="url(#assetClipPath_74wSu4qp)" transform="scale(1.0000846225449846 1.0000846225449846)" data-asset-index="0"><rect fill="#FFFFFF" height="498.801" rx="25" width="771.934" x="4" y="4" id="dZLCYdxr97BfpwpAt0Tmp" /><g fill="#3375E0" id="WQmdtG5f1v0mtvly4ELiO"><path d="m750.934 506.801h-721.934c-15.99 0-29-13.009-29-29v-448.801c0-15.991 13.01-29 29-29h721.935c15.99 0 29 13.009 29 29v448.801c0 15.991-13.01 29-29 29zm-721.934-498.801c-11.579 0-21 9.42-21 21v448.801c0 11.58 9.421 21 21 21h721.935c11.579 0 21-9.42 21-21v-448.801c0-11.58-9.421-21-21-21z" fill="#3375E0" id="Id4EQuknsOtoxp4NFr6T1" /><path d="m719.796 124.55h-451.889c-2.209 0-4-1.791-4-4s1.791-4 4-4h451.889c2.209 0 4 1.791 4 4s-1.791 4-4 4z" fill="#3375E0" id="Bxgn8E87QcMS1yuJ11IOP" /><path d="m719.796 213.117h-451.889c-2.209 0-4-1.791-4-4s1.791-4 4-4h451.889c2.209 0 4 1.791 4 4s-1.791 4-4 4z" fill="#3375E0" id="RjQRs1vIIHlg4veuNirnZ" /><path d="m719.796 301.684h-659.658c-2.209 0-4-1.791-4-4s1.791-4 4-4h659.657c2.209 0 4 1.791 4 4s-1.791 4-4 4z" fill="#3375E0" id="f7qAUf4ZcjWRE9v5fww5e" /><path d="m493.851 390.251h-433.713c-2.209 0-4-1.791-4-4s1.791-4 4-4h433.713c2.209 0 4 1.791 4 4s-1.791 4-4 4z" fill="#3375E0" id="ReK4iUydxN0Ev4na7Cgtu" /></g></g></g><g transform="translate(184 469)" data-asset-index="1"><g clip-path="url(#assetClipPath_5wTo9I0W)" transform="scale(1.000033510823114 1.000033510823114)" data-asset-index="1"><path d="m805.834 987.07c-4.857-70.997-46.718-258.079-82.624-288.116-136.766-73.595-40.119-276.832 103.618-216.428 76.907 34.945 133.749 117.822 173.772 253.367 26.518 89.809 41.021 191.578 45.413 251.177z" fill="#A8CFFB" id="CC84CFl2pXtwp8W22LCp-" /><path d="m1046.013 991.07h-240.179c-2.103 0-3.847-1.629-3.991-3.728-2.501-36.565-14.652-101.816-29.547-158.677-17.671-67.457-36.368-113.456-51.355-126.391-72.514-39.257-79.205-112.265-54.691-163.568 13.48-28.212 35.841-50.189 62.963-61.882 30.476-13.137 64.766-12.441 99.165 2.015.035.015.07.03.105.046 78.028 35.454 135.583 119.152 175.953 255.876 26.551 89.921 41.141 191.959 45.566 252.016.082 1.109-.302 2.202-1.059 3.017-.757.814-1.819 1.277-2.931 1.277zm-236.468-8.001h232.151c-4.76-60.146-19.183-158.839-44.933-246.043-39.664-134.332-95.777-216.383-171.537-250.834-32.328-13.572-64.432-14.271-92.846-2.021-25.344 10.926-46.266 31.519-58.912 57.984-12.65 26.476-15.54 55.716-8.134 82.335 8.299 29.834 28.968 54.365 59.771 70.941.238.128.463.281.671.455 22.292 18.648 43.563 89.925 54.258 130.752 14.517 55.416 26.454 118.846 29.51 156.431z" fill="#3375E0" id="Acq73gg3XIXXMKPQULfPK" /><path d="m32.938 931.96c-39.266-60.582-34.997-141.288-8.511-211.347 39.707-110.448 140.251-222.362 251.53-254.285 152.589-41.955 219.853 180.016 69.491 229.719-19.871 6.011-43.748 25.229-63.787 51.022" fill="#A8CFFB" id="TEHldVz_YWy6J9b4SmSIJ" /><path d="m32.942 935.961c-1.311 0-2.595-.643-3.36-1.825-19.034-29.366-28.978-64.437-29.556-104.237-.513-35.313 6.631-73.593 20.66-110.7 20.047-55.764 55.492-111.879 99.784-157.947 47.316-49.214 100.701-83.368 154.384-98.768 36.549-10.051 70.972-6.017 99.592 11.653 25.418 15.693 44.489 41.102 53.7 71.547 9.208 30.438 7.421 62.146-5.034 89.283-14.025 30.557-40.447 52.992-76.408 64.879-.032.011-.065.021-.097.031-19.002 5.748-42.099 24.308-61.786 49.648-1.355 1.744-3.867 2.06-5.613.705-1.745-1.355-2.06-3.868-.705-5.613 20.649-26.579 45.218-46.156 65.737-52.382 52.494-17.375 98.734-69.91 76.249-144.233-15.775-52.14-67.401-98.73-143.471-77.815-52.287 15-104.441 48.412-150.781 96.611-43.528 45.275-78.348 100.382-98.044 155.17-13.699 36.237-20.665 73.498-20.166 107.816.556 38.272 10.067 71.918 28.269 100.002 1.202 1.854.673 4.331-1.181 5.532-.672.436-1.426.644-2.171.644z" fill="#3375E0" id="JFUEgi-LyjTuewRunt21Q" /><path d="m254.267 473.577c59.459-19.27 134.222-27.371 204.441-25.222s160.9 3.267 224.126 7.448 107.023 8.764 149.972 28.944c40.978 19.254-.149 404.237-20.713 502.322h-500.569s-22.392-212.931-41.151-304.109" fill="#A8CFFB" id="gv57mkLXsjD6iQ3v7UopC" /><path d="m812.093 991.07h-500.568c-2.047 0-3.764-1.546-3.978-3.582-.224-2.127-22.587-213.78-41.091-303.721-.445-2.164.948-4.279 3.112-4.724 2.168-.446 4.279.948 4.724 3.112 17.25 83.842 37.791 272.552 40.83 300.915h493.712c11.759-58.029 31.925-207.41 39.187-327.677.133-2.205 2.025-3.882 4.234-3.751 2.205.133 3.885 2.029 3.751 4.234-7.42 122.896-28.296 276.205-39.997 332.016-.389 1.853-2.022 3.179-3.915 3.179z" fill="#3375E0" id="WcMfTL-SmC6ZMmzuHuM-9" /><path d="m840.109 493.174c-.673 0-1.356-.17-1.983-.529-41.217-23.591-94.834-28.835-155.557-32.851-44.771-2.96-102.709-4.368-158.74-5.728-23.053-.56-44.828-1.088-65.244-1.713-87.113-2.665-156.207 6.062-205.354 25.94-2.05.83-4.38-.16-5.208-2.208-.829-2.048.16-4.38 2.208-5.208 50.184-20.297 120.365-29.219 208.6-26.521 20.391.624 42.153 1.152 65.193 1.712 56.113 1.362 114.136 2.771 159.074 5.743 61.73 4.082 116.303 9.45 159.002 33.89 1.917 1.098 2.582 3.542 1.485 5.458-.739 1.291-2.088 2.014-3.476 2.014z" fill="#3375E0" id="MsWH75PJu93vBeA0jNbRm" /><path d="m626.65 455.804c13.922 1.335 56.184 0 56.184 0s-26.692 88.529-113.442 92.088c-86.749 3.559-113.711-65.167-110.685-99.536h30.59l137.352 7.448z" fill="#FFFFFF" id="XCH4VLJoGln-vAJ2ZHLyq" /><path d="m563.035 552.023c-41.695 0-66.851-16.928-80.796-31.542-21.438-22.466-29.267-52.589-27.515-72.478.182-2.065 1.911-3.649 3.984-3.649h30.59c.072 0 .145.002.217.006l137.352 7.448c.055.003.11.007.165.012 13.508 1.295 55.255-.003 55.676-.016 1.282-.05 2.515.541 3.299 1.562s1.028 2.358.657 3.591c-.281.933-7.091 23.106-24.859 46.006-16.502 21.269-45.901 47.022-92.248 48.923-2.216.091-4.393.135-6.522.135zm-100.54-99.668c-.402 17.996 7.104 43.292 25.532 62.604 19.385 20.314 47.46 30.322 81.202 28.936 34.745-1.425 63.765-16.846 86.255-45.834 11.83-15.247 18.604-30.356 21.617-38.094-12.144.314-39.678.872-50.749-.173l-137.162-7.438h-26.695z" fill="#3375E0" id="CSC-DVbjK6v2edbu47AZf" /><path d="m489.298 452.245v-41.53h137.352v63.328" fill="#FFFFFF" id="dM3OLAuD6rtAKvfWebR84" /><path d="m626.65 478.043c-2.209 0-4-1.791-4-4v-59.328h-129.352v37.529c0 2.209-1.791 4-4 4s-4-1.791-4-4v-41.529c0-2.209 1.791-4 4-4h137.352c2.209 0 4 1.791 4 4v63.328c0 2.209-1.791 4-4 4z" fill="#3375E0" id="Yfx1_7Giog7M-DhF0bWoh" /><path d="m569.392 547.892c-24.88-33.893-80.095-44.559-103.135-99.971l23.041.435v-37.64c0-40.161-92.116-41.46-97.309 31.664-3.953 55.673 81.963 122.247 152.524 126.142" fill="#A8CFFB" id="aQ46GCeLQAcgI8TVihIxP" /><path d="m544.516 572.522c-.074 0-.149-.002-.224-.006-43.871-2.422-96.936-29.558-129.043-65.99-19.268-21.863-28.691-44.143-27.25-64.43 1.458-20.526 9.679-37.371 23.777-48.714 11.775-9.474 27.327-14.587 42.66-14.052 22.881.812 38.861 13.718 38.861 31.385v37.64c0 1.074-.432 2.103-1.198 2.855-.767.752-1.786 1.136-2.877 1.145l-16.733-.316c13.846 28.643 36.848 44.03 59.135 58.938 15.795 10.566 30.715 20.545 40.993 34.547 1.307 1.781.923 4.284-.857 5.592-1.781 1.308-4.285.923-5.592-.857-9.446-12.868-23.797-22.468-38.992-32.632-23.549-15.752-50.241-33.607-64.612-68.17-.519-1.247-.373-2.671.387-3.787s2.031-1.781 3.381-1.748l18.965.358v-33.564c0-15.395-15.643-22.84-31.145-23.39-26.059-.927-55.38 15.999-58.174 55.337-1.267 17.842 7.708 38.644 25.272 58.574 30.803 34.952 81.581 60.979 123.481 63.291 2.206.122 3.896 2.009 3.774 4.214-.118 2.131-1.883 3.78-3.991 3.78z" fill="#3375E0" id="WJyNU-_3ILc1eYsOaTcSD" /><path d="m554.531 558.785c22.068-35.699 94.765-31.805 112.301-102.593l-40.183-.389v-45.088s21.117-27.702 63.526-18.205c55.287 12.381 73.536 42.292 63.399 68.572-21.016 54.486-82.86 94.457-165.301 107.439" fill="#A8CFFB" id="Ehp2GhhZYuIC-ZEaurD8i" /><path d="m588.27 572.522c-1.935 0-3.636-1.407-3.946-3.378-.344-2.182 1.146-4.23 3.329-4.573 81.145-12.778 141.776-52.003 162.191-104.927 3.697-9.585 3.104-19.413-1.715-28.423-8.478-15.849-29.369-28.21-58.826-34.807-34.992-7.838-54.543 11.186-58.652 15.765v39.664l36.221.35c1.224.012 2.374.583 3.124 1.55.749.967 1.015 2.224.721 3.412-11.189 45.164-43.555 60.965-72.111 74.905-17.56 8.573-32.725 15.976-40.67 28.829-1.161 1.88-3.625 2.462-5.506 1.299-1.879-1.162-2.46-3.626-1.299-5.506 9.162-14.82 26.067-23.073 43.966-31.811 25.89-12.639 55.096-26.899 66.508-64.729l-34.992-.338c-2.194-.021-3.961-1.806-3.961-4v-45.088c0-.876.288-1.728.819-2.425.926-1.214 23.182-29.627 67.582-19.684 40.711 9.117 57.346 26.154 64.132 38.84 5.95 11.124 6.685 23.252 2.125 35.075-21.454 55.621-84.411 96.724-168.411 109.951-.21.033-.42.049-.627.049z" fill="#3375E0" id="BtJ9WX9PBn5Z4TiMaq7O9" /><path d="m544.45 442.823c12.245 2.88 23.807 4.337 33.528 4.891 70.637 4.025 115.413-28.986 134.956-61.643 16.852-28.159 23.565-53.323 26.241-97.574 5.67-93.761-12.081-178.555-140.302-186.309-128.222-7.754-156.061 74.284-161.731 168.045-2.591 42.847 1.704 78.869 14.803 105.506 9 18.302 22.629 31.556 37.351 41.839l.002 16.977" fill="#FFFFFF" id="GeK7Nz8IQEppml-rJXXmS" /><g fill="#3375E0" id="ac9fDHjSegvYnWoFNE4b"><path d="m589.72 452.053c-3.94 0-7.928-.115-11.97-.345-11.224-.64-23.056-2.365-34.216-4.991-2.15-.506-3.483-2.659-2.978-4.81.505-2.15 2.659-3.487 4.81-2.978 10.716 2.521 22.071 4.178 32.839 4.791 31.736 1.807 60.183-3.78 84.547-16.611 19.738-10.395 36.34-25.698 46.749-43.092 16.542-27.643 23.022-51.806 25.68-95.761 3.359-55.549-2.807-94.682-19.405-123.151-21.08-36.158-59.398-55.432-117.146-58.924-57.752-3.492-98.11 11.024-123.393 44.378-19.908 26.263-30.744 64.366-34.104 119.916-2.652 43.854 2.193 78.677 14.399 103.5 7.633 15.521 19.426 28.711 36.052 40.324 1.071.748 1.709 1.972 1.709 3.279l.002 16.977c0 2.209-1.791 4-4 4s-4-1.791-4-4v-14.909c-16.87-12.117-28.964-25.918-36.942-42.142-12.827-26.083-17.942-62.256-15.206-107.513 3.459-57.199 14.807-96.685 35.713-124.265 27.023-35.648 69.625-51.195 130.251-47.531 60.623 3.666 101.044 24.234 123.574 62.88 17.431 29.898 23.938 70.464 20.479 127.663-2.712 44.845-9.725 70.853-26.801 99.387-11.151 18.634-28.868 34.993-49.886 46.062-22.544 11.873-48.321 17.866-76.76 17.866z" fill="#3375E0" id="PmZILYT3XQ4yuzw_V47bk" /><path d="m680.471 302.75c-11.776-6.201-24.002-8.974-38.901-11.643-9.553-1.711-9.375-12.562 4.303-17.728 12.855-4.856 37.449 1.886 44.898 13.92 7.771 12.554-.69 20.513-10.301 15.451z" fill="#3375E0" id="eya1zsuJSczMdaGdgbLfD" /><path d="m686.218 308.291c-2.453 0-5.063-.66-7.611-2.002-10.793-5.684-22.012-8.427-37.742-11.245-5.653-1.013-9.444-4.67-9.894-9.543-.463-5.031 2.836-11.841 13.488-15.864 13.885-5.245 41.003 1.487 49.713 15.556 5.528 8.93 3.913 15.956.558 19.552-2.188 2.347-5.207 3.546-8.512 3.546zm-3.883-9.08c2.696 1.419 5.265 1.45 6.545.078 1.278-1.37 1.65-4.781-1.509-9.885-5.684-9.182-27.374-17.082-40.084-12.283-6.419 2.425-8.51 5.901-8.349 7.646.153 1.656 2.385 2.232 3.338 2.403 16.503 2.957 28.349 5.875 40.059 12.042z" fill="#3375E0" id="CGQp-FWv5780JGKf-ZU8" /><path d="m551.649 292.721c-13.264 1.086-25.069 5.306-39.074 11.048-8.979 3.682-14.651-5.57-5.881-17.269 8.243-10.995 32.614-18.502 45.357-12.344 13.294 6.424 10.424 17.68-.402 18.566z" fill="#3375E0" id="a-u8LPLPSq3PfZJVJejkf" /><path d="m508.733 308.587c-3.256 0-6.148-1.326-8.11-3.863-3.091-3.997-3.96-11.514 2.87-20.625 8.903-11.875 35.399-20.745 50.298-13.547 9.457 4.57 11.862 11.365 10.961 16.201-1.024 5.495-6.04 9.402-12.777 9.954-12.156.995-23.096 4.699-37.883 10.762-1.832.751-3.646 1.118-5.359 1.118zm32.059-32.601c-10.792 0-24.831 4.821-30.897 12.913-4.116 5.49-4.015 9.545-2.943 10.931 1.017 1.315 3.21.604 4.106.237 15.514-6.36 27.076-10.253 40.266-11.333 3.037-.249 5.221-1.601 5.565-3.446.343-1.842-1.173-4.92-6.578-7.532-2.485-1.201-5.812-1.771-9.519-1.771z" fill="#3375E0" id="MYHHkMbem2Hl2X9Hquv6Q" /><ellipse cx="656.861" cy="325.013" rx="10.311" ry="8.661" transform="matrix(.06036912 -.99817612 .99817612 .06036912 292.792 961.058)" fill="#3375E0" id="Ma5sNa_DWhRDM6MWj8sN6" /><ellipse cx="542.923" cy="320.735" rx="10.311" ry="8.661" transform="matrix(.06036912 -.99817612 .99817612 .06036912 190.001 843.307)" fill="#3375E0" id="oNVi54drOODBGRBvF96zV" /><path d="m566.075 402.894c-15.907 0-32.202-7.216-39.154-19.35-1.098-1.917-.435-4.361 1.482-5.459 1.917-1.1 4.361-.434 5.459 1.482 7.989 13.942 33.957 19.825 49.618 11.242 1.937-1.061 4.369-.352 5.431 1.585 1.062 1.938.352 4.369-1.585 5.431-6.313 3.46-13.739 5.07-21.25 5.07z" fill="#3375E0" id="jcVaDIZe3szpIqCfIMte" /><path d="m441.98 260.316c12.377-24.822 16.746-164.487 138.58-158.781 165.751 7.764 136.865 139.174 153.131 180.503 3.52 8.944 27.67 4.848 30.961-12.071 9.216-47.38 13.49-131.845-47.996-179.015-84.036-64.469-203.919-52.149-260.573-1.091-49.747 44.834-56.088 113.306-45.097 164.312 8.448 39.206 30.993 6.143 30.993 6.143z" fill="#3375E0" id="oSzpyG9AAvQKkkTGgPGa" /><path d="m742.954 290.649c-6.333 0-11.21-2.636-12.985-7.146-3.603-9.155-5.056-22.019-6.739-36.914-3.079-27.255-6.91-61.174-25.855-88.851-22.237-32.484-60.509-49.562-117.002-52.208-95.696-4.487-116.417 83.883-127.559 131.356-2.641 11.255-4.728 20.145-7.255 25.213-.081.163-.173.319-.275.469-1.176 1.725-11.825 16.783-23.255 14.551-7.158-1.4-12.049-8.63-14.953-22.104-6.134-28.466-6.213-59.07-.224-86.176 7.322-33.137 22.985-60.709 46.553-81.949 29.297-26.404 73.975-42.37 122.578-43.804 52.697-1.567 103.512 14.317 143.107 44.692 27.954 21.445 45.457 52.38 52.022 91.947 5.771 34.776 1.807 68.684-2.535 91.005-2.404 12.36-13.821 18.936-23.411 19.814-.755.069-1.494.104-2.214.104zm-169.487-193.282c2.396 0 4.822.058 7.28.173 59.17 2.771 99.479 20.984 123.229 55.68 20.07 29.319 24.025 64.335 27.203 92.472 1.619 14.332 3.017 26.709 6.234 34.882.583 1.481 3.535 2.324 7.024 2.005 9.574-.878 15.155-7.549 16.289-13.375 4.216-21.676 8.071-54.567 2.495-88.168-6.223-37.5-22.708-66.74-49-86.909-38.139-29.258-87.142-44.547-138.002-43.043-46.736 1.379-89.548 16.597-117.458 41.75-22.305 20.103-37.142 46.255-44.097 77.733-5.746 26.007-5.664 55.4.233 82.765 2.036 9.446 5.193 15.255 8.664 15.938 4.853.962 12.053-6.837 14.959-10.981 2.071-4.327 4.13-13.1 6.507-23.228 5.546-23.633 13.928-59.349 33.477-88.184 22.289-32.875 54.212-49.508 94.964-49.508zm-131.487 162.949h.01z" fill="#3375E0" id="dq2mCakou2zSX9lBJhX1x" /></g><path d="m733.691 282.039c10.865-16.412 32.127-23.457 51.065-15.764 21.598 8.774 31.994 33.395 23.221 54.993-8.774 21.598-33.395 31.994-54.993 23.221-7.623-3.097-14.19-8.273-18.672-14.488-1.218 5.934-2.535 11.69-4.022 17.138" fill="#FFFFFF" id="GPfbwQWpKW1loaKe-e1Bf" /><path d="m768.875 351.617c-5.887 0-11.777-1.141-17.396-3.423-5.547-2.253-10.663-5.564-14.933-9.61-.79 3.445-1.583 6.626-2.397 9.607-.582 2.131-2.781 3.388-4.912 2.806s-3.387-2.781-2.806-4.912c1.347-4.935 2.643-10.459 3.963-16.889.319-1.555 1.528-2.774 3.08-3.107 1.553-.334 3.154.284 4.083 1.572 4.106 5.694 10.119 10.354 16.932 13.121 9.456 3.841 19.841 3.77 29.245-.2 9.402-3.97 16.696-11.364 20.537-20.82 7.93-19.521-1.5-41.852-21.02-49.781-16.793-6.822-36.234-.823-46.224 14.266-1.219 1.842-3.701 2.347-5.543 1.127s-2.347-3.702-1.127-5.543c12.083-18.253 35.596-25.514 55.906-17.262 23.607 9.589 35.011 36.597 25.421 60.204-4.646 11.436-13.466 20.378-24.837 25.18-5.784 2.442-11.876 3.665-17.971 3.665z" fill="#3375E0" id="VCFxh1kKiVXfEagUkYj" /><path d="m759.492 316.291c-1.406 0-2.77-.743-3.5-2.059-1.072-1.932-.376-4.367 1.556-5.438l24.457-13.577c1.93-1.072 4.367-.376 5.438 1.556 1.072 1.932.376 4.367-1.556 5.438l-24.457 13.577c-.615.342-1.281.503-1.938.503z" fill="#3375E0" id="TuEccAOd97ru5mSHKR7-x" /><path d="m778.144 323.869c-1.54 0-3.007-.894-3.665-2.394l-12.555-28.612c-.888-2.023.033-4.383 2.056-5.271 2.022-.887 4.383.033 5.271 2.056l12.555 28.612c.888 2.023-.033 4.383-2.056 5.271-.523.229-1.069.338-1.605.338z" fill="#3375E0" id="JbbvHd7ujexVQQDc_liAB" /><path d="m445.798 268.149c-7.674-21.761-32.532-30.906-52.243-25.493-22.48 6.174-35.698 29.402-29.524 51.882s29.402 35.698 51.882 29.524c7.934-2.179 15.865-6.232 21.046-11.877.235 4.644.81 10.364 1.607 16.785" fill="#FFFFFF" id="n3cjNW5kJtghd_q-9pwdo" /><path d="m438.56 332.971c-1.99 0-3.713-1.483-3.965-3.508-.416-3.354-.755-6.379-1.021-9.108-4.67 3.244-10.349 5.848-16.604 7.566-11.902 3.268-24.365 1.707-35.093-4.398s-18.437-16.022-21.706-27.925c-3.269-11.902-1.707-24.365 4.398-35.093s16.022-18.437 27.924-21.705c20.692-5.686 48.397 3.414 57.075 28.02.734 2.083-.359 4.368-2.442 5.103-2.081.733-4.368-.359-5.103-2.442-5.564-15.778-25.274-29.043-47.411-22.966-20.317 5.58-32.307 26.649-26.727 46.965 2.703 9.842 9.077 18.042 17.947 23.09s19.176 6.339 29.018 3.637c7.916-2.174 14.898-6.083 19.159-10.725 1.089-1.188 2.787-1.607 4.303-1.058 1.517.546 2.557 1.951 2.639 3.561.215 4.257.732 9.653 1.581 16.495.272 2.192-1.285 4.19-3.478 4.462-.167.021-.333.031-.497.031z" fill="#3375E0" id="yJDbGm_yY5paL-bY7Kyq4" /><path d="m415.253 295.388c-.81 0-1.628-.246-2.335-.756l-22.691-16.357c-1.792-1.292-2.198-3.792-.906-5.583 1.292-1.792 3.792-2.199 5.583-.906l22.691 16.357c1.792 1.292 2.198 3.792.906 5.583-.782 1.084-2.006 1.662-3.248 1.662z" fill="#3375E0" id="J_OJ8vuyffdEsl86BDFZl" /><path d="m395.838 300.72c-.688 0-1.386-.178-2.023-.552-1.904-1.12-2.541-3.571-1.422-5.476l15.831-26.938c1.119-1.904 3.57-2.541 5.476-1.422 1.904 1.12 2.541 3.571 1.422 5.476l-15.831 26.938c-.745 1.268-2.081 1.974-3.453 1.974z" fill="#3375E0" id="kdPd5-Oz_sMTeUoNgHx3Z" /><path d="m740.087 244.329c11.817-1.736 27.276-7.12 41.43-14.239 3.748-18.575 2.726-40.921.069-64.561 11.89 18.542 16.229 34.022 18.572 53.527 6.246-4.402 11.476-9.037 14.962-13.624-14.641-57.168-49.532-201.494-218.102-201.432-188.246.069-214.629 152.616-214.629 212.827 0 0 35.809 17.834 58.538 15.722 0 0 7.568-44.492 17.58-61.98 10.012-17.489 257.999-22.434 266.898 4.663 8.899 27.098 14.681 69.097 14.681 69.097z" fill="#A8CFFB" id="YEJousNii3fnDWLOe62ti" /><path d="m740.086 248.329c-.861 0-1.705-.278-2.402-.801-.853-.641-1.415-1.596-1.561-2.653-.058-.417-5.838-41.96-14.519-68.395-.171-.521-2.315-5.206-24.677-9.434-35.775-6.766-95.291-7.698-139.059-6.314-64.236 2.03-92.883 8.355-95.927 11.887-9.526 16.717-16.998 60.164-17.072 60.601-.304 1.786-1.77 3.145-3.573 3.312-1.382.128-2.81.189-4.266.189-23.385.002-55.01-15.608-56.426-16.313-1.358-.676-2.217-2.063-2.217-3.581 0-22.399 3.643-80.018 37.383-131.169 17.025-25.811 39.375-46.125 66.429-60.38 31.803-16.757 70.433-25.261 114.818-25.278h.109c72.741 0 129.514 26.693 168.748 79.34 32.174 43.173 44.957 93.171 52.595 123.044l.526 2.055c.303 1.183.049 2.44-.69 3.413-3.592 4.726-8.922 9.596-15.842 14.473-1.151.811-2.644.958-3.93.385-1.287-.573-2.177-1.779-2.346-3.178-1.489-12.396-3.725-23.333-8.851-35.021 1.271 19.054.64 33.792-1.898 46.369-.243 1.205-1.026 2.23-2.124 2.782-14.697 7.393-30.639 12.859-42.646 14.624-.194.028-.388.042-.582.042zm-147.311-96.151c29.413 0 57.669 1.171 79.938 3.435 15.655 1.592 28.212 3.687 37.323 6.228 11.401 3.179 17.492 7.038 19.168 12.143 7.376 22.462 12.55 54.391 14.247 65.695 10.148-2.049 22.635-6.485 34.509-12.291 2.797-15.374 2.68-34.449-.352-61.412-.208-1.848.885-3.595 2.637-4.216 1.755-.621 3.702.046 4.705 1.61 11.229 17.513 15.781 32.383 18.247 48.376 3.032-2.473 5.557-4.9 7.55-7.257l-.031-.122c-15.025-58.764-50.218-196.366-213.592-196.366h-.107c-79.936.029-138.67 27.64-174.569 82.063-31.355 47.535-35.765 101.011-36.045 124.245 7.607 3.536 33.046 14.686 51.142 14.413 1.951-10.626 8.708-44.802 17.49-60.14 1.762-3.079 6.544-6.684 28.646-10.082 14.243-2.189 33.534-3.929 55.787-5.031 17.478-.866 35.604-1.291 53.307-1.291z" fill="#3375E0" id="kW5v-umqhryD80M1V8gR" /><path d="m436.423 216.827c13.035 6.958 33.991 11.879 59.116 15.117 2.958-19.293 15.865-36.907 34.852-53.494-2.29 20.969-1.032 40.486 7.021 57.222 80.259 4.491 178.249-2.948 209.631-14.318 0-58.615-55.008-127.259-155.31-127.295-105.575-.038-152.436 58.052-155.31 122.768z" fill="#A8CFFB" id="iXfKOHqC8OGmA6EfXy9Pg" /><path d="m586.758 240.966c-16.972 0-33.751-.416-49.569-1.301-1.454-.081-2.749-.947-3.381-2.259-6.495-13.497-9.208-29.625-8.226-49.069-15.275 14.986-23.835 29.516-26.089 44.213-.329 2.146-2.314 3.64-4.465 3.361-27.422-3.535-47.773-8.768-60.488-15.556-1.359-.726-2.181-2.167-2.112-3.706 1.582-35.607 15.576-66.2 40.472-88.471 27.876-24.938 68.938-38.12 118.735-38.12h.101c59.616.021 97.071 23.261 117.994 42.753 26.256 24.461 41.315 56.733 41.315 88.542 0 1.684-1.054 3.187-2.637 3.761-26.266 9.517-95.417 15.853-161.648 15.853zm-46.72-9.157c80.843 4.275 171.428-3.329 202.962-13.31-.875-28.672-14.878-57.617-38.725-79.833-19.872-18.513-55.528-40.586-112.543-40.607h-.098c-47.802 0-87.013 12.476-113.401 36.083-22.656 20.268-35.651 47.989-37.676 80.298 11.389 5.491 28.763 9.869 51.747 13.039 3.837-17.518 15.474-34.583 35.456-52.04 1.241-1.084 3.02-1.297 4.481-.534 1.461.762 2.306 2.342 2.127 3.98-2.35 21.517-.495 38.863 5.67 52.925z" fill="#3375E0" id="dQMxXl3frwudnfGNbgIH-" /><path d="m527.61 367.343c-34.066 0-61.781-27.715-61.781-61.781s27.715-61.781 61.781-61.781 61.781 27.715 61.781 61.781-27.715 61.781-61.781 61.781zm0-115.562c-29.655 0-53.781 24.126-53.781 53.781s24.126 53.781 53.781 53.781 53.781-24.126 53.781-53.781-24.126-53.781-53.781-53.781z" fill="#3375E0" id="xaUiz0Sr8IomFm0CqkaoU" /><path d="m666.434 366.088h-.024c-34.066-.013-61.771-27.738-61.757-61.804.013-34.058 27.726-61.758 61.78-61.758h.024c34.066.013 61.771 27.739 61.758 61.805-.013 34.058-27.726 61.757-61.781 61.757zm-.001-115.562c-29.647 0-53.769 24.111-53.78 53.761-.011 29.655 24.105 53.79 53.76 53.801h.021c29.647.002 53.77-24.111 53.781-53.76.011-29.655-24.105-53.791-53.761-53.802z" fill="#3375E0" id="b-vwXvbYqF9G1SeO_D6MG" /><path d="m585.391 305.562h23.261" fill="#FFFFFF" id="lTueBekqyWc8tSzAdV6HV" /><path d="m608.652 309.562h-23.261c-2.209 0-4-1.791-4-4s1.791-4 4-4h23.261c2.209 0 4 1.791 4 4s-1.791 4-4 4z" fill="#3375E0" id="c25nY4zhbap3HBRRZLsb" /><path d="m724.214 304.329 15.873-29.823" fill="#FFFFFF" id="MWoIbiu_bTCOIaBrC4xyI" /><path d="m724.211 308.33c-.634 0-1.277-.151-1.876-.47-1.95-1.038-2.689-3.46-1.652-5.411l15.872-29.823c1.038-1.95 3.46-2.688 5.411-1.652 1.95 1.038 2.689 3.46 1.652 5.411l-15.872 29.823c-.719 1.351-2.104 2.122-3.535 2.122z" fill="#3375E0" id="nunBDLFoJ7qxI0kXj3Ib" /><path d="m469.829 305.562-31.582-50.167" fill="#FFFFFF" id="AA0XgwXNwh3NVCfFf7QN" /><path d="m469.833 309.563c-1.329 0-2.629-.662-3.389-1.87l-31.582-50.167c-1.177-1.869-.615-4.339 1.254-5.516 1.87-1.177 4.339-.616 5.516 1.254l31.582 50.167c1.177 1.869.615 4.339-1.254 5.516-.662.417-1.399.615-2.127.615z" fill="#3375E0" id="lWrSkvEw2-7zBuGF55P" /><path d="m436.757 793.187c35.406-3.539 69.417-1.077 96.899 5.42 98.075 22.909 74.119 167.449-25.892 157.703-34.145-7.335-51.629-9.07-86.429-3.814" fill="#FFFFFF" id="K7NzahVBbQ9PRaPVKZlcB" /><path d="m517.363 960.785c-3.239 0-6.564-.161-9.986-.495-.152-.015-.303-.038-.452-.07-34.059-7.315-51.114-8.886-84.991-3.77-2.185.332-4.222-1.174-4.552-3.358s1.173-4.223 3.358-4.552c35.035-5.292 52.656-3.695 87.639 3.81 22.064 2.101 41.712-3.571 56.833-16.402 13.576-11.52 22.751-28.178 25.837-46.906 3.086-18.729-.263-37.446-9.43-52.704-10.25-17.062-27.15-28.762-48.872-33.836-28.55-6.749-62.495-8.643-95.592-5.335-2.199.217-4.159-1.384-4.378-3.582-.22-2.198 1.384-4.158 3.582-4.378 33.956-3.396 68.837-1.438 98.218 5.507 23.867 5.575 42.508 18.544 53.899 37.503 10.143 16.883 13.86 37.525 10.466 58.124-5.771 35.023-33.593 70.44-81.579 70.443z" fill="#3375E0" id="jvoEYBdBaCvo1vOVUt3P-" /><path d="m533.657 798.607c67.447 14.762 84.356 31.006 104.805 49.113 65.36 57.876 16.723 110.03-37.49 44.027l-39.312-15.644" fill="#FFFFFF" id="mDGNHLdWi7uRvTsMvdyN" /><path d="m649.054 926.541c-15.385 0-33.742-11.322-50.512-31.456l-38.361-15.266c-2.053-.816-3.054-3.143-2.237-5.195.817-2.053 3.143-3.054 5.195-2.237l39.312 15.644c.628.25 1.183.655 1.612 1.177 12.104 14.737 29.664 29.353 44.824 29.354 1.584 0 3.139-.159 4.662-.495 5.898-1.299 10.013-5.355 11.587-11.419 3.058-11.779-3.041-32.659-29.326-55.934l-1.641-1.455c-19.718-17.494-36.747-32.602-101.367-46.745-2.158-.473-3.524-2.605-3.052-4.763.473-2.159 2.604-3.523 4.763-3.053 66.658 14.59 85.266 31.099 104.966 48.576l1.635 1.45c24.623 21.803 36.498 45.703 31.766 63.933-2.334 8.994-8.753 15.271-17.61 17.223-2.006.442-4.083.66-6.216.66z" fill="#3375E0" id="l7-0uvKzNw8pKS4IUTsRm" /><path d="m550.782 859.914c44.695 15.63 56.296 56.74 47.548 80.601-7.777 21.21-34.603 25.808-46.057 20.302-12.148-5.839-28.134-20.776-28.134-20.776" fill="#FFFFFF" id="g9StEvdyWVdPW7DrWAQP5" /><path d="m563.276 966.943c-4.78 0-9.227-.834-12.736-2.522-12.555-6.035-28.461-20.831-29.132-21.458-1.614-1.508-1.7-4.039-.192-5.653 1.507-1.614 4.038-1.701 5.653-.193.156.146 15.688 14.591 27.136 20.094 4.582 2.202 13.847 2.812 23.365-1.053 5.875-2.385 13.63-7.274 17.203-17.021 4.228-11.532 3.001-26.354-3.281-39.647-5.468-11.57-17.164-27.173-41.832-35.8-2.085-.729-3.185-3.011-2.456-5.096s3.01-3.186 5.096-2.456c27.281 9.541 40.304 26.982 46.424 39.934 7.179 15.19 8.509 32.319 3.559 45.819-3.574 9.749-11.282 17.448-21.705 21.679-5.516 2.239-11.536 3.373-17.104 3.373z" fill="#3375E0" id="ho98VR6NkS3vwZZexazkx" /><path d="m526.992 907.895c25.552 9.01 44.768 25.526 35.484 51.746-10.221 28.865-45.048 26.647-67.563 20.73-17.477-4.593-8.919-43.316 20.782-35.898" fill="#FFFFFF" id="zdqIRIyyBV1UMLueAbQYp" /><path d="m521.496 988.04c-11.095 0-21.467-2.188-27.6-3.8-9.422-2.476-14.093-12.732-11.106-24.386 3.216-12.548 15.188-23.929 33.875-19.262 2.143.535 3.447 2.707 2.912 4.85s-2.706 3.446-4.85 2.912c-9.699-2.424-20.938.809-24.186 13.486-1.581 6.167-.237 13.184 5.39 14.663 7.779 2.044 22.884 5.101 36.664 2.61 13.289-2.403 22.074-9.403 26.112-20.807 2.961-8.363 2.835-16.009-.374-22.726-4.659-9.751-15.956-18.02-32.669-23.913-2.083-.735-3.177-3.019-2.442-5.103.735-2.083 3.021-3.175 5.103-2.442 18.76 6.615 31.633 16.3 37.228 28.009 4.158 8.702 4.393 18.407.697 28.844-4.995 14.106-16.14 23.1-32.23 26.01-4.152.75-8.387 1.054-12.521 1.055z" fill="#3375E0" id="gyHbqSXSV4kyUTG9LAm2I" /><path d="m132.644 766.918c37.98-18.603 120.141-20.153 149.017-19.848h98.154c158.28 4.01 158.223 236.017 0 240h-245.935c-40.832 0-78.861-20.763-100.941-55.109" fill="#A8CFFB" id="jpzPQiMsidOqBVr3kh1XV" /><path d="m379.815 991.07h-245.935c-42.39 0-81.383-21.289-104.306-56.946-1.194-1.858-.657-4.333 1.202-5.528s4.334-.656 5.528 1.202c21.444 33.357 57.921 53.272 97.577 53.272h245.885c55.267-1.413 114.733-38.307 114.739-115.996.004-54.461-35.896-113.985-114.74-116.004h-98.103c-10.905-.115-39.54-.07-70.726 2.817-34.848 3.226-60.597 8.818-76.532 16.624-1.984.972-4.381.151-5.352-1.833-.972-1.984-.151-4.38 1.833-5.352 41.558-20.356 132.925-20.445 150.818-20.256h98.112c.034 0 .067 0 .101.001 37.861.959 69.646 14.783 91.919 39.979 19.78 22.375 30.671 52.215 30.669 84.024-.002 31.81-10.899 61.651-30.682 84.026-22.275 25.194-54.056 39.015-91.907 39.968-.033 0-.067.001-.101.001z" fill="#3375E0" id="rBNxhMNzSD2W30IJFd_vi" /><rect fill="#3375E0" height="22.068" rx="7" width="546.036" x="328.364" y="965.001" id="ZLiRebizQHbF-OXITR7Hi" /><path d="m867.401 991.07h-532.037c-6.065 0-11-4.935-11-11v-8.069c0-6.065 4.935-11 11-11h532.037c6.065 0 11 4.935 11 11v8.069c0 6.065-4.935 11-11 11zm-532.037-22.069c-1.654 0-3 1.346-3 3v8.069c0 1.654 1.346 3 3 3h532.037c1.654 0 3-1.346 3-3v-8.069c0-1.654-1.346-3-3-3z" fill="#3375E0" id="ojgmlB6Bv2ezId-7DMfTt" /><rect fill="#3375E0" height="363.828" rx="20.198" width="546.036" x="328.364" y="601.173" id="oLC9zUWlvkHF6tsOOBvq" /><path d="m854.203 969.001h-505.641c-13.343 0-24.198-10.855-24.198-24.197v-323.433c0-13.342 10.855-24.197 24.198-24.197h505.641c13.343 0 24.198 10.855 24.198 24.197v323.433c0 13.342-10.855 24.197-24.198 24.197zm-505.641-363.828c-8.932 0-16.198 7.266-16.198 16.197v323.433c0 8.931 7.266 16.197 16.198 16.197h505.641c8.932 0 16.198-7.266 16.198-16.197v-323.433c0-8.931-7.266-16.197-16.198-16.197z" fill="#3375E0" id="j1GYFnvjTbIjssmQb6kwp" /><path d="m854.203 969.001h-505.641c-6.464 0-12.541-2.517-17.11-7.087-1.562-1.562-1.562-4.095 0-5.657s4.095-1.562 5.657 0c3.059 3.059 7.126 4.744 11.453 4.744h505.641c5.199 0 9.954-2.403 13.045-6.593 1.312-1.777 3.815-2.156 5.593-.844 1.778 1.311 2.156 3.815.844 5.593-4.547 6.164-11.831 9.844-19.482 9.844z" fill="#FFFFFF" id="mQZvJstsu7AQd_sfKjm-" /><path d="m1011.445 911.477h16.334c33.008 0 59.806 26.798 59.806 59.806v15.787h-135.945v-15.787c0-33.008 26.798-59.806 59.806-59.806z" fill="#3375E0" id="wH9jesolkpmcMCHY7OeY" /><path d="m1087.585 991.07h-135.945c-2.209 0-4-1.791-4-4v-15.788c0-35.182 28.623-63.805 63.805-63.805h16.334c35.182 0 63.805 28.623 63.805 63.805v15.788c0 2.209-1.791 4-4 4zm-131.945-8h127.945v-11.788c0-30.771-25.034-55.805-55.805-55.805h-16.334c-30.771 0-55.805 25.034-55.805 55.805v11.788z" fill="#3375E0" id="qf5Q3RZtdqcNJMo8FYhOR" /><ellipse cx="1019.612" cy="965.123" fill="#FFFFFF" rx="8.53" ry="15.85" id="WjSWqE_MicuH8Rj09PI5j" /><path d="m1019.612 984.974c-7.143 0-12.53-8.534-12.53-19.85s5.387-19.85 12.53-19.85 12.53 8.534 12.53 19.85-5.387 19.85-12.53 19.85zm0-31.701c-1.314 0-4.53 4.152-4.53 11.85s3.215 11.85 4.53 11.85 4.53-4.152 4.53-11.85-3.215-11.85-4.53-11.85z" fill="#FFFFFF" id="U_Yb_FMwkRVpeEl0G5fF6" /><path d="m1089.011 924.592s-8.297 8.195-11.044 23.328c-4.26 23.471 14.954 34.156 31.293 23.48 9.564-6.249 23.041-15.547 20.355-38.627-3.97-34.103-37.317-43.897-67.936-11.135 0 0 13.7 8.902 17.912 19.757" fill="#FFFFFF" id="bDOrJemLmmeGvnk_lIsUZ" /><path d="m1096.178 979.545c-4.423 0-8.684-1.214-12.371-3.66-8.373-5.555-12.027-16.276-9.775-28.68.357-1.968.802-3.829 1.308-5.58-4.219-8.978-15.723-16.557-15.844-16.636-.99-.646-1.645-1.697-1.787-2.87s.24-2.35 1.047-3.213c16.384-17.53 35.522-24.915 51.189-19.761 13.072 4.301 21.689 16.389 23.642 33.165 3.026 25.995-13.345 36.691-22.14 42.438-4.88 3.188-10.182 4.796-15.271 4.796zm-4.345-52.118c-.114.115-7.472 7.667-9.93 21.208-1.687 9.294.619 16.797 6.328 20.584 5.219 3.463 12.44 3.016 18.842-1.167 8.872-5.797 21.023-13.736 18.569-34.816-1.577-13.549-8.209-23.205-18.196-26.491-11.695-3.847-26.295 1.517-39.665 14.394 3.158 2.48 7.631 6.413 11.195 11.189 3.373-6.716 6.987-10.348 7.225-10.582 1.571-1.551 4.104-1.536 5.657.035 1.548 1.568 1.537 4.093-.024 5.646z" fill="#3375E0" id="ONOvn18k6wTJ2ED63qkuE" /><path d="m1030.271 889.563s-2.129 15.406 0 31.278c3.42 25.498 28.244 36.619 39.007 17.273 9.35-16.806 18.207-52.752.467-70.025s-58.664-3.877-72.226 47.063c0 0 13.009-6.028 31.934-3.674" fill="#FFFFFF" id="pzkVecVfoKxM1lIIeBCwf" /><path d="m1054.337 951.921c-1.265 0-2.551-.121-3.852-.368-12.161-2.303-22.103-14.714-24.178-30.181-.283-2.107-.494-4.202-.646-6.253-15.663-1.163-26.356 3.614-26.47 3.667-1.408.642-3.065.418-4.248-.581-1.182-.999-1.688-2.587-1.289-4.083 11.415-42.875 38.553-53.451 46.599-55.671 12.542-3.461 24.307-.993 32.282 6.772 8.736 8.506 12.581 21.786 11.119 38.404-1.3 14.777-6.473 28.508-10.881 36.432-4.238 7.617-10.949 11.863-18.438 11.863zm-24.071-66.358c.182 0 .366.012.551.038 2.188.302 3.717 2.32 3.417 4.508-.021.149-2.025 15.088.002 30.2 1.894 14.117 10.522 22.018 17.738 23.385 5.618 1.061 10.519-1.609 13.81-7.525 8.35-15.008 17.265-49.545 1.172-65.214-5.887-5.731-14.842-7.477-24.573-4.792-16.941 4.675-31.108 20.448-38.804 42.811 5.176-1.287 12.686-2.466 21.749-1.897-.104-10.021.919-17.609.982-18.061.277-2.002 1.991-3.452 3.957-3.452z" fill="#3375E0" id="ip9-edFlPjEtKfftOStJ" /><path d="m957.497 911.477s1.806 12.341 9.445 31.68c8.736 22.117 40.248 23.9 44.14-3.643 2.496-17.662 2.407-33.466-6.541-49.865-18.052-33.086-86.517 5.919-56.172 81.741 0 0 6.821-23.47 16.858-32.719" fill="#FFFFFF" id="p5YpaucJtUR43NqS00ER" /><path d="m948.368 975.39c-1.628 0-3.103-.99-3.713-2.514-20.751-51.853 3.064-85.435 24.135-95.356 16.033-7.548 31.812-3.445 39.263 10.212 10.042 18.406 9.295 36.034 6.99 52.341-1.874 13.26-10.215 22.348-21.77 23.717-12.069 1.43-23.878-5.685-29.317-17.45-5.739 8.292-10.264 21.068-11.745 26.166-.477 1.639-1.941 2.795-3.646 2.879-.066.003-.132.005-.197.005zm36.173-93.559c-4.288 0-8.629 1.177-12.344 2.926-16.896 7.956-35.622 33.898-23.802 74.5 2.798-6.993 6.995-15.779 12.209-21.584-5.544-15.516-6.999-25.16-7.066-25.617-.32-2.186 1.193-4.217 3.379-4.537 2.189-.318 4.215 1.192 4.537 3.375.02.131 1.573 10.276 7.476 26.263.034.082.064.165.092.249.513 1.385 1.059 2.812 1.639 4.281 4.337 10.978 14.281 15.035 21.669 14.158 8.017-.949 13.407-7.106 14.79-16.891 2.44-17.271 2.338-31.939-6.092-47.39-3.899-7.146-10.135-9.733-16.489-9.733z" fill="#3375E0" id="YS8Tv97AtGBPJw2Xc-9cy" /><path d="m904.02 958.849c-7.081 25.982 50.071 42.53 47.998 6.275-1.87-32.7-38.661-40.532-47.998-6.275z" fill="#FFFFFF" id="PeAG1w2OAlEk5ySwP7KW" /><path d="m932.888 990.059c-8.144 0-17.039-2.988-23.822-8.495-8.005-6.499-11.25-15.162-8.905-23.767 2.323-8.523 6.473-15.346 12.001-19.73 5.174-4.104 11.511-5.996 17.851-5.333 14.311 1.501 25.001 14.727 25.999 32.162.603 10.542-3.351 18.541-11.132 22.523-3.487 1.784-7.632 2.641-11.991 2.641zm-25.009-30.159c-2.019 7.406 3.036 12.86 6.229 15.453 7.842 6.367 20.01 8.585 27.126 4.943 4.928-2.522 7.213-7.55 6.79-14.944-.628-10.992-6.794-23.398-18.846-24.663-7.555-.786-17.109 3.842-21.299 19.211z" fill="#3375E0" id="SQZeRV1b-MatB2HnGy0" /><path d="m466.26 451.922c-1.516 0-2.966-.866-3.639-2.335-8.06-17.593-7.922-31.98-7.912-32.583.036-2.187 1.819-3.935 3.998-3.935h.066c2.209.036 3.97 1.855 3.935 4.064-.001.123-.075 13.272 7.187 29.122.92 2.008.038 4.382-1.971 5.303-.54.247-1.106.364-1.664.364z" fill="#3375E0" id="QKfh_JyTr1789iM5UPOjc" /></g></g><g transform="translate(82 502) rotate(-9.210650126088806 144.5 138.5)" data-asset-index="2"><g clip-path="url(#assetClipPath_b_yD7Jyn)" transform="scale(1.0008068789023676 1.0008068789023676)" data-asset-index="2"><path d="m242.01 88.141c-4.652-9.056-10.41-17.166-16.991-24.302l13.783-30.595-37.71-24.312-22.189 25.196c-18.651-6.18-38.937-7.398-58.699-2.92l-19.585-27.208-39.91 20.502 10.71 31.767c-15.15 13.457-25.974 30.657-31.814 49.417l-33.404 3.362-2.2 44.814 32.898 6.615c1.967 9.506 5.207 18.91 9.859 27.966s10.41 17.167 16.992 24.303l-13.783 30.595 37.71 24.312 22.189-25.196c18.651 6.18 38.937 7.398 58.699 2.92l19.585 27.208 39.91-20.502-10.71-31.767c15.15-13.457 25.974-30.657 31.814-49.417l33.404-3.362 2.2-44.814-32.898-6.615c-1.967-9.506-5.207-18.91-9.859-27.967zm-56.633 79.551c-30.616 38.611-89.04 19.841-91.439-29.376-.517-10.601 2.86-21.112 9.455-29.428 30.615-38.603 89.03-19.838 91.437 29.373.519 10.602-2.858 21.114-9.453 29.431z" fill="#A8CFFB" id="XyK3DR3qIC1IEH_9CFIa" /><path d="m188.151 276.585c-1.252 0-2.475-.588-3.248-1.664l-18.058-25.086c-18.441 3.721-37.587 2.767-55.705-2.775l-20.462 23.235c-1.31 1.486-3.508 1.79-5.169.718l-37.711-24.312c-1.664-1.072-2.293-3.2-1.48-5.005l12.711-28.214c-6.225-7.07-11.543-14.867-15.83-23.212-4.286-8.343-7.526-17.208-9.649-26.387l-30.337-6.1c-1.94-.39-3.304-2.141-3.207-4.118l2.2-44.814c.097-1.977 1.625-3.585 3.595-3.784l30.805-3.101c6.048-17.956 16.424-34.075 30.188-46.897l-9.874-29.29c-.633-1.875.202-3.931 1.962-4.836l39.908-20.501c1.76-.904 3.918-.385 5.074 1.221l18.058 25.086c18.442-3.721 37.587-2.767 55.705 2.774l20.462-23.235c1.31-1.486 3.508-1.79 5.169-.718l37.711 24.312c1.664 1.072 2.293 3.2 1.48 5.005l-12.711 28.214c6.225 7.071 11.544 14.869 15.829 23.212 4.286 8.343 7.527 17.208 9.65 26.388l30.337 6.1c1.94.39 3.304 2.141 3.207 4.118l-2.2 44.814c-.097 1.977-1.625 3.585-3.595 3.784l-30.805 3.101c-6.048 17.955-16.424 34.075-30.188 46.898l9.874 29.29c.633 1.875-.202 3.932-1.962 4.836l-39.91 20.502c-.582.299-1.208.442-1.826.442zm-19.587-35.208c1.269 0 2.484.605 3.246 1.663l17.574 24.413 33.784-17.355-9.609-28.504c-.514-1.521-.066-3.202 1.134-4.268 14.314-12.716 24.913-29.181 30.65-47.615.477-1.532 1.822-2.631 3.419-2.792l29.979-3.018 1.862-37.937-29.521-5.936c-1.572-.316-2.804-1.541-3.129-3.11-1.945-9.398-5.142-18.466-9.5-26.95-4.358-8.485-9.867-16.364-16.374-23.417-1.087-1.179-1.365-2.893-.707-4.355l12.369-27.456-31.923-20.581-19.913 22.612c-1.06 1.204-2.734 1.66-4.26 1.153-18.328-6.073-37.885-7.047-56.558-2.816-1.566.355-3.192-.262-4.13-1.564l-17.574-24.414-33.784 17.356 9.609 28.504c.514 1.521.066 3.202-1.134 4.269-14.314 12.715-24.913 29.18-30.65 47.614-.477 1.532-1.822 2.631-3.419 2.792l-29.979 3.018-1.862 37.937 29.521 5.936c1.572.316 2.804 1.541 3.129 3.11 1.945 9.398 5.142 18.465 9.499 26.95 4.36 8.487 9.869 16.366 16.375 23.417 1.087 1.179 1.365 2.893.707 4.355l-12.369 27.456 31.923 20.581 19.913-22.612c1.06-1.203 2.735-1.659 4.26-1.153 18.327 6.072 37.883 7.046 56.558 2.816.294-.066.591-.099.884-.099zm-24.018-48.979c-5.536 0-11.147-.868-16.694-2.65-22.19-7.129-36.716-26.762-37.909-51.237-.565-11.604 3.098-23.007 10.316-32.108 15.225-19.197 38.466-26.694 60.653-19.567 22.188 7.127 36.716 26.758 37.913 51.23.567 11.603-3.096 23.007-10.313 32.112-11.42 14.402-27.351 22.22-43.965 22.22zm-.24-100.191c-14.237 0-27.929 6.747-37.779 19.167-6.013 7.583-9.064 17.082-8.594 26.748 1.027 21.062 13.429 37.926 32.366 44.01 18.938 6.083 38.841-.403 51.943-16.924 6.014-7.584 9.065-17.084 8.593-26.75-1.03-21.06-13.434-37.921-32.369-44.004-4.699-1.509-9.461-2.245-14.16-2.245zm41.071 75.486h.01z" fill="#3375E0" id="M22ZIsSVYEYDz4-Pmjd12" /></g></g><g transform="translate(1271 608)" data-asset-index="3"><g clip-path="url(#assetClipPath_DTX71JK_)" transform="scale(1.0004670768485575 1.0004670768485575)" data-asset-index="3"><rect fill="#A8CFFB" height="216.836" rx="15" width="338.838" x="4" y="4" id="fgLmLZh8p3_61T705uhpi" /><path d="m327.838 224.836h-308.838c-10.477 0-19-8.524-19-19v-186.836c0-10.477 8.523-19 19-19h308.839c10.477 0 19 8.523 19 19v186.836c0 10.477-8.523 19-19 19zm-308.838-216.836c-6.065 0-11 4.935-11 11v186.836c0 6.065 4.935 11 11 11h308.839c6.065 0 11-4.935 11-11v-186.836c0-6.065-4.935-11-11-11z" fill="#3375E0" id="Kd_JhZU7VlnYXg8ID0pnK" /><path d="m121.003 69.772c-.862-.552-1.947-.626-2.875-.196l-75.877 35.063c-1.062.491-1.742 1.554-1.742 2.723v13.543c0 1.168.679 2.231 1.739 2.722l75.877 35.156c.401.186.832.278 1.261.278.563 0 1.125-.159 1.615-.472.863-.551 1.385-1.504 1.385-2.528v-18.181c0-1.223-.742-2.323-1.876-2.781l-51.253-20.714 51.272-21.131c1.124-.463 1.857-1.558 1.857-2.773v-18.181c0-1.023-.521-1.976-1.384-2.527z" fill="#FFFFFF" id="HxUkxf4CP30GpJgguxKTY" /><path d="m119.386 163.062c-1.01 0-2.027-.224-2.942-.649l-75.878-35.156c-2.465-1.143-4.057-3.636-4.057-6.352v-13.543c0-2.719 1.595-5.213 4.062-6.354l75.879-35.063c2.173-1.008 4.683-.838 6.706.457 2.022 1.292 3.229 3.498 3.229 5.897v18.181c0 2.847-1.7 5.387-4.332 6.472l-42.212 17.397 42.167 17.042c2.658 1.074 4.377 3.622 4.377 6.49v18.181c0 2.402-1.208 4.607-3.232 5.899-1.127.72-2.43 1.101-3.768 1.101zm-74.877-42.795 73.877 34.229v-15.941l-50.628-20.462c-1.507-.609-2.495-2.069-2.501-3.695s.973-3.093 2.476-3.712l50.653-20.876v-15.947l-73.877 34.139z" fill="#3375E0" id="rOeyrh_aHa4qOljzQkgAJ" /><path d="m206.117 36.091h-14.656c-1.241 0-2.354.765-2.8 1.923l-56.398 146.653c-.354.922-.232 1.96.328 2.775s1.484 1.302 2.473 1.302h14.749c1.242 0 2.355-.765 2.801-1.925l56.305-146.653c.354-.922.231-1.96-.328-2.774-.56-.814-1.484-1.301-2.473-1.301z" fill="#FFFFFF" id="tw0evlnSQhowxck2tCvz" /><path d="m149.812 192.745h-14.749c-2.307 0-4.464-1.136-5.771-3.038-1.306-1.9-1.592-4.321-.764-6.474l56.398-146.654c1.031-2.684 3.657-4.488 6.533-4.488h14.656c2.307 0 4.464 1.135 5.77 3.036 1.307 1.901 1.593 4.322.765 6.475l-56.304 146.652c-1.031 2.687-3.658 4.491-6.535 4.491zm-13.294-8h12.606l55.537-144.653h-12.514l-55.63 144.653zm69.599-144.653h.01z" fill="#3375E0" id="xHb_lDnIOL0_9LMD70upC" /><path d="m304.543 104.526-79.217-35.063c-.928-.411-2-.324-2.851.229-.85.554-1.363 1.5-1.363 2.514v17.625c0 1.234.756 2.343 1.906 2.793l54.227 21.247-54.238 21.498c-1.144.454-1.895 1.559-1.895 2.789v17.81c0 1.015.514 1.961 1.365 2.515.494.321 1.063.485 1.635.485.413 0 .828-.085 1.217-.258l79.217-35.156c1.084-.481 1.783-1.556 1.783-2.742v-13.543c0-1.187-.7-2.263-1.786-2.743z" fill="#FFFFFF" id="dn6mzZllsLphifQiwLlXO" /><path d="m224.112 162.969c-1.357 0-2.677-.391-3.815-1.131-1.994-1.297-3.185-3.491-3.185-5.869v-17.81c0-2.888 1.734-5.442 4.42-6.507l44.803-17.758-44.775-17.544c-2.702-1.059-4.447-3.617-4.447-6.518v-17.625c0-2.375 1.188-4.568 3.18-5.865 1.993-1.297 4.479-1.498 6.652-.536l79.219 35.063c2.53 1.121 4.165 3.633 4.165 6.401v13.543c0 2.765-1.633 5.277-4.161 6.398l-79.216 35.156c-.901.399-1.856.602-2.84.602zm1-24.131v15.593l77.217-34.269v-12.242l-77.217-34.178v15.406l53.592 20.999c1.53.599 2.538 2.073 2.541 3.716s-.999 3.121-2.526 3.727l-53.606 21.248zm77.807-30.656s.003 0 .004.001h-.004z" fill="#3375E0" id="CJnt9q2vm3KICyElkPGAY" /></g></g><g transform="translate(150 1454) rotate(0.11060947555190156 616.5 4)" data-asset-index="4"><g clip-path="url(#assetClipPath_iDCdWfPw)" transform="scale(1 1)" data-asset-index="4"><line x2="100%" y1="4" y2="4" stroke-width="4" stroke="#3375E0" id="BsCefNZu9IMj2BBLU4x4C" style="stroke-width:8;vector-effect:non-scaling-stroke;" /></g></g><g transform="translate(326 382) rotate(-5.129499284145808 91 94.5)" data-asset-index="5"><g clip-path="url(#assetClipPath_d-x5bwWk)" transform="scale(0.962794855924627 0.962794855924627)" data-asset-index="5"><path class="cls-2" d="M168.157,94.162c-.397-6.831-1.73-13.381-3.835-19.557l16.791-15.057-16.567-25.197-20.489,9.453c-9.783-8.87-21.92-15.134-35.284-17.756l-4.639-22.048-30.105,1.749-2.055,22.437c-12.971,4.152-24.3,11.779-32.991,21.722l-21.445-7.017-13.538,26.946,18.421,13.011c-1.376,6.378-1.942,13.039-1.545,19.869.397,6.831,1.73,13.382,3.835,19.557l-16.791,15.057,16.567,25.197,20.489-9.453c9.783,8.87,21.92,15.134,35.284,17.756l4.639,22.048,30.105-1.749,2.055-22.437c12.971-4.152,24.3-11.779,32.991-21.722l21.445,7.017,13.538-26.946-18.421-13.011c1.376-6.378,1.942-13.039,1.545-19.87ZM111.718,127.656c-29.316,15.406-60.121-12.016-48.213-42.919,2.565-6.656,7.499-12.198,13.814-15.516,29.313-15.402,60.114,12.015,48.212,42.917-2.564,6.657-7.498,12.2-13.813,15.519Z" id="AhLINZpflWvrhO4qWe0xH" fill="#FFFFFF" style="stroke-width:0px;" /><path class="cls-1" d="M84.897,196.879c-1.88,0-3.521-1.316-3.912-3.176l-4.104-19.505c-11.971-2.783-23.143-8.407-32.587-16.402l-18.131,8.365c-1.797.829-3.932.219-5.018-1.435l-16.567-25.197c-1.088-1.654-.803-3.854.671-5.176l14.859-13.324c-1.787-5.888-2.87-11.958-3.226-18.081-.356-6.12.018-12.273,1.11-18.331L1.693,73.103c-1.617-1.142-2.155-3.294-1.267-5.063l13.537-26.945c.889-1.769,2.939-2.619,4.818-2.006l18.978,6.209c8.454-9.035,18.9-15.915,30.469-20.065l1.817-19.849c.181-1.971,1.775-3.514,3.751-3.628L103.901.007c1.997-.124,3.738,1.233,4.146,3.169l4.104,19.505c11.971,2.784,23.144,8.407,32.587,16.403l18.131-8.365c1.797-.83,3.932-.219,5.018,1.434l16.567,25.197c1.088,1.654.802,3.854-.671,5.176l-14.859,13.324c1.787,5.888,2.87,11.958,3.226,18.08.356,6.12-.018,12.274-1.11,18.332l16.301,11.514c1.616,1.142,2.155,3.294,1.267,5.063l-13.537,26.946c-.889,1.769-2.939,2.619-4.818,2.006l-18.979-6.209c-8.454,9.035-18.899,15.915-30.468,20.065l-1.817,19.849c-.181,1.971-1.775,3.514-3.752,3.628l-30.105,1.749c-.078.005-.156.007-.233.007ZM44.975,149.075c.975,0,1.937.355,2.688,1.037,9.438,8.556,20.976,14.363,33.367,16.794,1.576.309,2.814,1.53,3.145,3.102l3.93,18.679,23.231-1.349,1.74-19.008c.146-1.599,1.234-2.956,2.764-3.445,12.028-3.85,22.816-10.955,31.198-20.545,1.055-1.208,2.727-1.67,4.256-1.169l18.174,5.946,10.445-20.792-15.608-11.025c-1.31-.925-1.94-2.543-1.603-4.111,1.336-6.189,1.827-12.512,1.462-18.793h0c-.365-6.284-1.585-12.508-3.628-18.498-.518-1.518-.078-3.198,1.115-4.269l14.228-12.758-12.783-19.443-17.362,8.01c-1.456.672-3.174.409-4.362-.669-9.438-8.556-20.976-14.363-33.368-16.794-1.575-.309-2.813-1.53-3.144-3.102l-3.931-18.679-23.23,1.35-1.74,19.008c-.146,1.599-1.234,2.956-2.764,3.445-12.028,3.85-22.816,10.955-31.199,20.545-1.056,1.208-2.729,1.668-4.256,1.169l-18.173-5.946-10.445,20.792,15.608,11.025c1.31.925,1.94,2.543,1.603,4.111-1.336,6.189-1.827,12.512-1.462,18.793.365,6.285,1.585,12.509,3.628,18.499.518,1.518.078,3.198-1.115,4.269l-14.228,12.758,12.783,19.443,17.362-8.01c.536-.248,1.107-.368,1.675-.368ZM94.372,136.097c-9.048,0-17.781-3.229-24.879-9.546-12.119-10.788-15.844-27.361-9.721-43.251,2.923-7.583,8.493-13.84,15.686-17.619,15.074-7.919,31.963-6.138,44.082,4.648,12.117,10.787,15.844,27.358,9.724,43.247-2.921,7.583-8.491,13.842-15.685,17.622-6.246,3.282-12.806,4.899-19.207,4.899ZM94.618,68.815c-5.133,0-10.405,1.303-15.439,3.947-5.476,2.877-9.717,7.641-11.941,13.414-4.895,12.702-1.991,25.883,7.575,34.399,9.566,8.515,22.994,9.873,35.046,3.54l1.86,3.541-1.86-3.541c5.476-2.877,9.716-7.642,11.94-13.416,4.892-12.701,1.988-25.881-7.578-34.396-5.569-4.958-12.449-7.489-19.603-7.489Z" id="DH9csiWo8PSncWskDiCd4" fill="#3375E0" style="stroke-width:0px;" /></g></g></svg>